<svg xmlns="http://www.w3.org/2000/svg" viewBox="0 0 912 1202" width="912" height="1202" style="font-family: ui-monospace, monospace; font-size: 12px;"><defs><marker id="arrow" viewBox="0 0 10 10" refX="10" refY="5" markerWidth="8" markerHeight="8" orient="auto-start-reverse"><path d="M 0 0 L 10 5 L 0 10 z" fill="rgba(154,124,255,0.6)"></path></marker></defs><path d="M 336 323 C 296 323, 296 59, 256 59" fill="none" stroke="rgba(154,124,255,0.4)" stroke-width="1.5" marker-end="url(#arrow)"></path><path d="M 576 345 C 576 345, 576 59, 576 59" fill="none" stroke="rgba(154,124,255,0.4)" stroke-width="1.5" marker-end="url(#arrow)"></path><path d="M 656 323 C 456 323, 456 59, 256 59" fill="none" stroke="rgba(154,124,255,0.4)" stroke-width="1.5" marker-end="url(#arrow)"></path><path d="M 656 345 C 616 345, 616 59, 576 59" fill="none" stroke="rgba(154,124,255,0.4)" stroke-width="1.5" marker-end="url(#arrow)"></path><path d="M 336 763 C 296 763, 296 59, 256 59" fill="none" stroke="rgba(154,124,255,0.4)" stroke-width="1.5" marker-end="url(#arrow)"></path><path d="M 656 675 C 456 675, 456 59, 256 59" fill="none" stroke="rgba(154,124,255,0.4)" stroke-width="1.5" marker-end="url(#arrow)"></path><path d="M 336 1115 C 296 1115, 296 59, 256 59" fill="none" stroke="rgba(154,124,255,0.4)" stroke-width="1.5" marker-end="url(#arrow)"></path><rect x="16" y="16" width="240" height="224" rx="8" fill="rgba(22,22,22,1)" stroke="rgba(255,255,255,0.1)" stroke-width="1"></rect><rect x="16" y="16" width="240" height="32" rx="8" fill="rgba(154,124,255,0.12)"></rect><rect x="16" y="44" width="240" height="4" fill="rgba(154,124,255,0.12)"></rect><text x="28" y="37" fill="rgba(255,255,255,1)" font-weight="600" font-size="13">User</text><text x="28" y="63" fill="rgba(255,255,255,0.85)">id</text><rect x="48.4" y="53" width="22" height="14" rx="3" fill="rgba(79,188,252,0.7)" opacity="0.2"></rect><text x="59.4" y="62" fill="rgba(79,188,252,0.7)" font-size="9" font-weight="600" text-anchor="middle">PK</text><text x="244" y="63" fill="rgba(255,255,255,0.4)" text-anchor="end" font-size="11">String</text><text x="28" y="85" fill="rgba(255,255,255,0.85)">role</text><text x="244" y="85" fill="rgba(255,255,255,0.4)" text-anchor="end" font-size="11">UserRole</text><text x="28" y="107" fill="rgba(255,255,255,0.85)">createdAt</text><text x="244" y="107" fill="rgba(255,255,255,0.4)" text-anchor="end" font-size="11">DateTime</text><text x="28" y="129" fill="rgba(255,255,255,0.85)">updatedAt</text><text x="244" y="129" fill="rgba(255,255,255,0.4)" text-anchor="end" font-size="11">DateTime</text><text x="28" y="151" fill="rgba(255,255,255,0.85)">name</text><text x="244" y="151" fill="rgba(255,255,255,0.4)" text-anchor="end" font-size="11">String</text><text x="28" y="173" fill="rgba(255,255,255,0.85)">email</text><text x="244" y="173" fill="rgba(255,255,255,0.4)" text-anchor="end" font-size="11">String</text><text x="28" y="195" fill="rgba(255,255,255,0.85)">emailVerified</text><text x="244" y="195" fill="rgba(255,255,255,0.4)" text-anchor="end" font-size="11">Boolean</text><text x="28" y="217" fill="rgba(255,255,255,0.85)">image</text><text x="244" y="217" fill="rgba(255,255,255,0.4)" text-anchor="end" font-size="11">String?</text><rect x="336" y="16" width="240" height="202" rx="8" fill="rgba(22,22,22,1)" stroke="rgba(255,255,255,0.1)" stroke-width="1"></rect><rect x="336" y="16" width="240" height="32" rx="8" fill="rgba(154,124,255,0.12)"></rect><rect x="336" y="44" width="240" height="4" fill="rgba(154,124,255,0.12)"></rect><text x="348" y="37" fill="rgba(255,255,255,1)" font-weight="600" font-size="13">Course</text><text x="348" y="63" fill="rgba(255,255,255,0.85)">courseId</text><rect x="411.6" y="53" width="22" height="14" rx="3" fill="rgba(79,188,252,0.7)" opacity="0.2"></rect><text x="422.6" y="62" fill="rgba(79,188,252,0.7)" font-size="9" font-weight="600" text-anchor="middle">PK</text><text x="564" y="63" fill="rgba(255,255,255,0.4)" text-anchor="end" font-size="11">String</text><text x="348" y="85" fill="rgba(255,255,255,0.85)">courseName</text><text x="564" y="85" fill="rgba(255,255,255,0.4)" text-anchor="end" font-size="11">String</text><text x="348" y="107" fill="rgba(255,255,255,0.85)">courseDescription</text><text x="564" y="107" fill="rgba(255,255,255,0.4)" text-anchor="end" font-size="11">String?</text><text x="348" y="129" fill="rgba(255,255,255,0.85)">totalEnrolled</text><text x="564" y="129" fill="rgba(255,255,255,0.4)" text-anchor="end" font-size="11">BigInt</text><text x="348" y="151" fill="rgba(255,255,255,0.85)">totalCompleted</text><text x="564" y="151" fill="rgba(255,255,255,0.4)" text-anchor="end" font-size="11">BigInt</text><text x="348" y="173" fill="rgba(255,255,255,0.85)">createdAt</text><text x="564" y="173" fill="rgba(255,255,255,0.4)" text-anchor="end" font-size="11">DateTime</text><text x="348" y="195" fill="rgba(255,255,255,0.85)">updatedAt</text><text x="564" y="195" fill="rgba(255,255,255,0.4)" text-anchor="end" font-size="11">DateTime</text><rect x="656" y="16" width="240" height="180" rx="8" fill="rgba(22,22,22,1)" stroke="rgba(255,255,255,0.1)" stroke-width="1"></rect><rect x="656" y="16" width="240" height="32" rx="8" fill="rgba(154,124,255,0.12)"></rect><rect x="656" y="44" width="240" height="4" fill="rgba(154,124,255,0.12)"></rect><text x="668" y="37" fill="rgba(255,255,255,1)" font-weight="600" font-size="13">Comment</text><text x="668" y="63" fill="rgba(255,255,255,0.85)">commentId</text><rect x="738.8" y="53" width="22" height="14" rx="3" fill="rgba(79,188,252,0.7)" opacity="0.2"></rect><text x="749.8" y="62" fill="rgba(79,188,252,0.7)" font-size="9" font-weight="600" text-anchor="middle">PK</text><text x="884" y="63" fill="rgba(255,255,255,0.4)" text-anchor="end" font-size="11">String</text><text x="668" y="85" fill="rgba(255,255,255,0.85)">commentText</text><text x="884" y="85" fill="rgba(255,255,255,0.4)" text-anchor="end" font-size="11">String</text><text x="668" y="107" fill="rgba(255,255,255,0.85)">courseId</text><text x="884" y="107" fill="rgba(255,255,255,0.4)" text-anchor="end" font-size="11">String</text><text x="668" y="129" fill="rgba(255,255,255,0.85)">authorId</text><text x="884" y="129" fill="rgba(255,255,255,0.4)" text-anchor="end" font-size="11">String</text><text x="668" y="151" fill="rgba(255,255,255,0.85)">createdAt</text><text x="884" y="151" fill="rgba(255,255,255,0.4)" text-anchor="end" font-size="11">DateTime</text><text x="668" y="173" fill="rgba(255,255,255,0.85)">updatedAt</text><text x="884" y="173" fill="rgba(255,255,255,0.4)" text-anchor="end" font-size="11">DateTime</text><rect x="16" y="280" width="240" height="246" rx="8" fill="rgba(22,22,22,1)" stroke="rgba(255,255,255,0.1)" stroke-width="1"></rect><rect x="16" y="280" width="240" height="32" rx="8" fill="rgba(154,124,255,0.12)"></rect><rect x="16" y="308" width="240" height="4" fill="rgba(154,124,255,0.12)"></rect><text x="28" y="301" fill="rgba(255,255,255,1)" font-weight="600" font-size="13">Module</text><text x="28" y="327" fill="rgba(255,255,255,0.85)">moduleId</text><rect x="91.6" y="317" width="22" height="14" rx="3" fill="rgba(79,188,252,0.7)" opacity="0.2"></rect><text x="102.6" y="326" fill="rgba(79,188,252,0.7)" font-size="9" font-weight="600" text-anchor="middle">PK</text><text x="244" y="327" fill="rgba(255,255,255,0.4)" text-anchor="end" font-size="11">String</text><text x="28" y="349" fill="rgba(255,255,255,0.85)">courseId</text><text x="244" y="349" fill="rgba(255,255,255,0.4)" text-anchor="end" font-size="11">String</text><text x="28" y="371" fill="rgba(255,255,255,0.85)">moduleIndex</text><text x="244" y="371" fill="rgba(255,255,255,0.4)" text-anchor="end" font-size="11">Int</text><text x="28" y="393" fill="rgba(255,255,255,0.85)">moduleType</text><text x="244" y="393" fill="rgba(255,255,255,0.4)" text-anchor="end" font-size="11">ModuleType</text><text x="28" y="415" fill="rgba(255,255,255,0.85)">moduleTitle</text><text x="244" y="415" fill="rgba(255,255,255,0.4)" text-anchor="end" font-size="11">String</text><text x="28" y="437" fill="rgba(255,255,255,0.85)">moduleDescription</text><text x="244" y="437" fill="rgba(255,255,255,0.4)" text-anchor="end" font-size="11">String</text><text x="28" y="459" fill="rgba(255,255,255,0.85)">createdAt</text><text x="244" y="459" fill="rgba(255,255,255,0.4)" text-anchor="end" font-size="11">DateTime</text><text x="28" y="481" fill="rgba(255,255,255,0.85)">updatedAt</text><text x="244" y="481" fill="rgba(255,255,255,0.4)" text-anchor="end" font-size="11">DateTime</text><text x="28" y="503" fill="rgba(255,255,255,0.85)">quizConfig</text><text x="244" y="503" fill="rgba(255,255,255,0.4)" text-anchor="end" font-size="11">Json?</text><rect x="336" y="280" width="240" height="92" rx="8" fill="rgba(22,22,22,1)" stroke="rgba(255,255,255,0.1)" stroke-width="1"></rect><rect x="336" y="280" width="240" height="32" rx="8" fill="rgba(154,124,255,0.12)"></rect><rect x="336" y="308" width="240" height="4" fill="rgba(154,124,255,0.12)"></rect><text x="348" y="301" fill="rgba(255,255,255,1)" font-weight="600" font-size="13">Managing</text><text x="348" y="327" fill="rgba(154,124,255,0.9)">instructorId</text><rect x="440.4" y="317" width="22" height="14" rx="3" fill="rgba(79,188,252,0.7)" opacity="0.2"></rect><text x="451.4" y="326" fill="rgba(79,188,252,0.7)" font-size="9" font-weight="600" text-anchor="middle">PK</text><rect x="468.4" y="317" width="22" height="14" rx="3" fill="rgba(154,124,255,0.7)" opacity="0.2"></rect><text x="479.4" y="326" fill="rgba(154,124,255,0.7)" font-size="9" font-weight="600" text-anchor="middle">FK</text><text x="564" y="327" fill="rgba(255,255,255,0.4)" text-anchor="end" font-size="11">String</text><text x="348" y="349" fill="rgba(154,124,255,0.9)">courseId</text><rect x="411.6" y="339" width="22" height="14" rx="3" fill="rgba(79,188,252,0.7)" opacity="0.2"></rect><text x="422.6" y="348" fill="rgba(79,188,252,0.7)" font-size="9" font-weight="600" text-anchor="middle">PK</text><rect x="439.6" y="339" width="22" height="14" rx="3" fill="rgba(154,124,255,0.7)" opacity="0.2"></rect><text x="450.6" y="348" fill="rgba(154,124,255,0.7)" font-size="9" font-weight="600" text-anchor="middle">FK</text><text x="564" y="349" fill="rgba(255,255,255,0.4)" text-anchor="end" font-size="11">String</text><rect x="656" y="280" width="240" height="114" rx="8" fill="rgba(22,22,22,1)" stroke="rgba(255,255,255,0.1)" stroke-width="1"></rect><rect x="656" y="280" width="240" height="32" rx="8" fill="rgba(154,124,255,0.12)"></rect><rect x="656" y="308" width="240" height="4" fill="rgba(154,124,255,0.12)"></rect><text x="668" y="301" fill="rgba(255,255,255,1)" font-weight="600" font-size="13">Enrollment</text><text x="668" y="327" fill="rgba(154,124,255,0.9)">studentId</text><rect x="738.8" y="317" width="22" height="14" rx="3" fill="rgba(79,188,252,0.7)" opacity="0.2"></rect><text x="749.8" y="326" fill="rgba(79,188,252,0.7)" font-size="9" font-weight="600" text-anchor="middle">PK</text><rect x="766.8" y="317" width="22" height="14" rx="3" fill="rgba(154,124,255,0.7)" opacity="0.2"></rect><text x="777.8" y="326" fill="rgba(154,124,255,0.7)" font-size="9" font-weight="600" text-anchor="middle">FK</text><text x="884" y="327" fill="rgba(255,255,255,0.4)" text-anchor="end" font-size="11">String</text><text x="668" y="349" fill="rgba(154,124,255,0.9)">courseId</text><rect x="731.6" y="339" width="22" height="14" rx="3" fill="rgba(79,188,252,0.7)" opacity="0.2"></rect><text x="742.6" y="348" fill="rgba(79,188,252,0.7)" font-size="9" font-weight="600" text-anchor="middle">PK</text><rect x="759.6" y="339" width="22" height="14" rx="3" fill="rgba(154,124,255,0.7)" opacity="0.2"></rect><text x="770.6" y="348" fill="rgba(154,124,255,0.7)" font-size="9" font-weight="600" text-anchor="middle">FK</text><text x="884" y="349" fill="rgba(255,255,255,0.4)" text-anchor="end" font-size="11">String</text><text x="668" y="371" fill="rgba(255,255,255,0.85)">courseStatus</text><text x="884" y="371" fill="rgba(255,255,255,0.4)" text-anchor="end" font-size="11">CourseStatus</text><rect x="16" y="566" width="240" height="202" rx="8" fill="rgba(22,22,22,1)" stroke="rgba(255,255,255,0.1)" stroke-width="1"></rect><rect x="16" y="566" width="240" height="32" rx="8" fill="rgba(154,124,255,0.12)"></rect><rect x="16" y="594" width="240" height="4" fill="rgba(154,124,255,0.12)"></rect><text x="28" y="587" fill="rgba(255,255,255,1)" font-weight="600" font-size="13">Submission</text><text x="28" y="613" fill="rgba(255,255,255,0.85)">id</text><rect x="48.4" y="603" width="22" height="14" rx="3" fill="rgba(79,188,252,0.7)" opacity="0.2"></rect><text x="59.4" y="612" fill="rgba(79,188,252,0.7)" font-size="9" font-weight="600" text-anchor="middle">PK</text><text x="244" y="613" fill="rgba(255,255,255,0.4)" text-anchor="end" font-size="11">String</text><text x="28" y="635" fill="rgba(255,255,255,0.85)">studentId</text><text x="244" y="635" fill="rgba(255,255,255,0.4)" text-anchor="end" font-size="11">String</text><text x="28" y="657" fill="rgba(255,255,255,0.85)">moduleId</text><text x="244" y="657" fill="rgba(255,255,255,0.4)" text-anchor="end" font-size="11">String</text><text x="28" y="679" fill="rgba(255,255,255,0.85)">submissionStatus</text><text x="244" y="679" fill="rgba(255,255,255,0.4)" text-anchor="end" font-size="11">SubmissionStatus</text><text x="28" y="701" fill="rgba(255,255,255,0.85)">submissionGrade</text><text x="244" y="701" fill="rgba(255,255,255,0.4)" text-anchor="end" font-size="11">Decimal</text><text x="28" y="723" fill="rgba(255,255,255,0.85)">submissionType</text><text x="244" y="723" fill="rgba(255,255,255,0.4)" text-anchor="end" font-size="11">SubmissionType</text><text x="28" y="745" fill="rgba(255,255,255,0.85)">quizState</text><text x="244" y="745" fill="rgba(255,255,255,0.4)" text-anchor="end" font-size="11">Json?</text><rect x="336" y="566" width="240" height="224" rx="8" fill="rgba(22,22,22,1)" stroke="rgba(255,255,255,0.1)" stroke-width="1"></rect><rect x="336" y="566" width="240" height="32" rx="8" fill="rgba(154,124,255,0.12)"></rect><rect x="336" y="594" width="240" height="4" fill="rgba(154,124,255,0.12)"></rect><text x="348" y="587" fill="rgba(255,255,255,1)" font-weight="600" font-size="13">Session</text><text x="348" y="613" fill="rgba(255,255,255,0.85)">id</text><rect x="368.4" y="603" width="22" height="14" rx="3" fill="rgba(79,188,252,0.7)" opacity="0.2"></rect><text x="379.4" y="612" fill="rgba(79,188,252,0.7)" font-size="9" font-weight="600" text-anchor="middle">PK</text><text x="564" y="613" fill="rgba(255,255,255,0.4)" text-anchor="end" font-size="11">String</text><text x="348" y="635" fill="rgba(255,255,255,0.85)">expiresAt</text><text x="564" y="635" fill="rgba(255,255,255,0.4)" text-anchor="end" font-size="11">DateTime</text><text x="348" y="657" fill="rgba(255,255,255,0.85)">token</text><text x="564" y="657" fill="rgba(255,255,255,0.4)" text-anchor="end" font-size="11">String</text><text x="348" y="679" fill="rgba(255,255,255,0.85)">createdAt</text><text x="564" y="679" fill="rgba(255,255,255,0.4)" text-anchor="end" font-size="11">DateTime</text><text x="348" y="701" fill="rgba(255,255,255,0.85)">updatedAt</text><text x="564" y="701" fill="rgba(255,255,255,0.4)" text-anchor="end" font-size="11">DateTime</text><text x="348" y="723" fill="rgba(255,255,255,0.85)">ipAddress</text><text x="564" y="723" fill="rgba(255,255,255,0.4)" text-anchor="end" font-size="11">String?</text><text x="348" y="745" fill="rgba(255,255,255,0.85)">userAgent</text><text x="564" y="745" fill="rgba(255,255,255,0.4)" text-anchor="end" font-size="11">String?</text><text x="348" y="767" fill="rgba(154,124,255,0.9)">userId</text><rect x="397.2" y="757" width="22" height="14" rx="3" fill="rgba(154,124,255,0.7)" opacity="0.2"></rect><text x="408.2" y="766" fill="rgba(154,124,255,0.7)" font-size="9" font-weight="600" text-anchor="middle">FK</text><text x="564" y="767" fill="rgba(255,255,255,0.4)" text-anchor="end" font-size="11">String</text><rect x="656" y="566" width="240" height="334" rx="8" fill="rgba(22,22,22,1)" stroke="rgba(255,255,255,0.1)" stroke-width="1"></rect><rect x="656" y="566" width="240" height="32" rx="8" fill="rgba(154,124,255,0.12)"></rect><rect x="656" y="594" width="240" height="4" fill="rgba(154,124,255,0.12)"></rect><text x="668" y="587" fill="rgba(255,255,255,1)" font-weight="600" font-size="13">Account</text><text x="668" y="613" fill="rgba(255,255,255,0.85)">id</text><rect x="688.4" y="603" width="22" height="14" rx="3" fill="rgba(79,188,252,0.7)" opacity="0.2"></rect><text x="699.4" y="612" fill="rgba(79,188,252,0.7)" font-size="9" font-weight="600" text-anchor="middle">PK</text><text x="884" y="613" fill="rgba(255,255,255,0.4)" text-anchor="end" font-size="11">String</text><text x="668" y="635" fill="rgba(255,255,255,0.85)">accountId</text><text x="884" y="635" fill="rgba(255,255,255,0.4)" text-anchor="end" font-size="11">String</text><text x="668" y="657" fill="rgba(255,255,255,0.85)">providerId</text><text x="884" y="657" fill="rgba(255,255,255,0.4)" text-anchor="end" font-size="11">String</text><text x="668" y="679" fill="rgba(154,124,255,0.9)">userId</text><rect x="717.2" y="669" width="22" height="14" rx="3" fill="rgba(154,124,255,0.7)" opacity="0.2"></rect><text x="728.2" y="678" fill="rgba(154,124,255,0.7)" font-size="9" font-weight="600" text-anchor="middle">FK</text><text x="884" y="679" fill="rgba(255,255,255,0.4)" text-anchor="end" font-size="11">String</text><text x="668" y="701" fill="rgba(255,255,255,0.85)">accessToken</text><text x="884" y="701" fill="rgba(255,255,255,0.4)" text-anchor="end" font-size="11">String?</text><text x="668" y="723" fill="rgba(255,255,255,0.85)">refreshToken</text><text x="884" y="723" fill="rgba(255,255,255,0.4)" text-anchor="end" font-size="11">String?</text><text x="668" y="745" fill="rgba(255,255,255,0.85)">idToken</text><text x="884" y="745" fill="rgba(255,255,255,0.4)" text-anchor="end" font-size="11">String?</text><text x="668" y="767" fill="rgba(255,255,255,0.85)">accessTokenExpiresAt</text><text x="884" y="767" fill="rgba(255,255,255,0.4)" text-anchor="end" font-size="11">DateTime?</text><text x="668" y="789" fill="rgba(255,255,255,0.85)">refreshTokenExpiresAt</text><text x="884" y="789" fill="rgba(255,255,255,0.4)" text-anchor="end" font-size="11">DateTime?</text><text x="668" y="811" fill="rgba(255,255,255,0.85)">scope</text><text x="884" y="811" fill="rgba(255,255,255,0.4)" text-anchor="end" font-size="11">String?</text><text x="668" y="833" fill="rgba(255,255,255,0.85)">password</text><text x="884" y="833" fill="rgba(255,255,255,0.4)" text-anchor="end" font-size="11">String?</text><text x="668" y="855" fill="rgba(255,255,255,0.85)">createdAt</text><text x="884" y="855" fill="rgba(255,255,255,0.4)" text-anchor="end" font-size="11">DateTime</text><text x="668" y="877" fill="rgba(255,255,255,0.85)">updatedAt</text><text x="884" y="877" fill="rgba(255,255,255,0.4)" text-anchor="end" font-size="11">DateTime</text><rect x="16" y="940" width="240" height="180" rx="8" fill="rgba(22,22,22,1)" stroke="rgba(255,255,255,0.1)" stroke-width="1"></rect><rect x="16" y="940" width="240" height="32" rx="8" fill="rgba(154,124,255,0.12)"></rect><rect x="16" y="968" width="240" height="4" fill="rgba(154,124,255,0.12)"></rect><text x="28" y="961" fill="rgba(255,255,255,1)" font-weight="600" font-size="13">Verification</text><text x="28" y="987" fill="rgba(255,255,255,0.85)">id</text><rect x="48.4" y="977" width="22" height="14" rx="3" fill="rgba(79,188,252,0.7)" opacity="0.2"></rect><text x="59.4" y="986" fill="rgba(79,188,252,0.7)" font-size="9" font-weight="600" text-anchor="middle">PK</text><text x="244" y="987" fill="rgba(255,255,255,0.4)" text-anchor="end" font-size="11">String</text><text x="28" y="1009" fill="rgba(255,255,255,0.85)">identifier</text><text x="244" y="1009" fill="rgba(255,255,255,0.4)" text-anchor="end" font-size="11">String</text><text x="28" y="1031" fill="rgba(255,255,255,0.85)">value</text><text x="244" y="1031" fill="rgba(255,255,255,0.4)" text-anchor="end" font-size="11">String</text><text x="28" y="1053" fill="rgba(255,255,255,0.85)">expiresAt</text><text x="244" y="1053" fill="rgba(255,255,255,0.4)" text-anchor="end" font-size="11">DateTime</text><text x="28" y="1075" fill="rgba(255,255,255,0.85)">createdAt</text><text x="244" y="1075" fill="rgba(255,255,255,0.4)" text-anchor="end" font-size="11">DateTime</text><text x="28" y="1097" fill="rgba(255,255,255,0.85)">updatedAt</text><text x="244" y="1097" fill="rgba(255,255,255,0.4)" text-anchor="end" font-size="11">DateTime</text><rect x="336" y="940" width="240" height="246" rx="8" fill="rgba(22,22,22,1)" stroke="rgba(255,255,255,0.1)" stroke-width="1"></rect><rect x="336" y="940" width="240" height="32" rx="8" fill="rgba(154,124,255,0.12)"></rect><rect x="336" y="968" width="240" height="4" fill="rgba(154,124,255,0.12)"></rect><text x="348" y="961" fill="rgba(255,255,255,1)" font-weight="600" font-size="13">File</text><text x="348" y="987" fill="rgba(255,255,255,0.85)">id</text><rect x="368.4" y="977" width="22" height="14" rx="3" fill="rgba(79,188,252,0.7)" opacity="0.2"></rect><text x="379.4" y="986" fill="rgba(79,188,252,0.7)" font-size="9" font-weight="600" text-anchor="middle">PK</text><text x="564" y="987" fill="rgba(255,255,255,0.4)" text-anchor="end" font-size="11">String</text><text x="348" y="1009" fill="rgba(255,255,255,0.85)">s3Path</text><text x="564" y="1009" fill="rgba(255,255,255,0.4)" text-anchor="end" font-size="11">String</text><text x="348" y="1031" fill="rgba(255,255,255,0.85)">originalName</text><text x="564" y="1031" fill="rgba(255,255,255,0.4)" text-anchor="end" font-size="11">String</text><text x="348" y="1053" fill="rgba(255,255,255,0.85)">mimeType</text><text x="564" y="1053" fill="rgba(255,255,255,0.4)" text-anchor="end" font-size="11">String</text><text x="348" y="1075" fill="rgba(255,255,255,0.85)">size</text><text x="564" y="1075" fill="rgba(255,255,255,0.4)" text-anchor="end" font-size="11">Int</text><text x="348" y="1097" fill="rgba(255,255,255,0.85)">createdAt</text><text x="564" y="1097" fill="rgba(255,255,255,0.4)" text-anchor="end" font-size="11">DateTime</text><text x="348" y="1119" fill="rgba(154,124,255,0.9)">uploaderId</text><rect x="426" y="1109" width="22" height="14" rx="3" fill="rgba(154,124,255,0.7)" opacity="0.2"></rect><text x="437" y="1118" fill="rgba(154,124,255,0.7)" font-size="9" font-weight="600" text-anchor="middle">FK</text><text x="564" y="1119" fill="rgba(255,255,255,0.4)" text-anchor="end" font-size="11">String</text><text x="348" y="1141" fill="rgba(255,255,255,0.85)">moduleId</text><text x="564" y="1141" fill="rgba(255,255,255,0.4)" text-anchor="end" font-size="11">String?</text><text x="348" y="1163" fill="rgba(255,255,255,0.85)">submissionId</text><text x="564" y="1163" fill="rgba(255,255,255,0.4)" text-anchor="end" font-size="11">String?</text></svg>